<?xml version="1.0" encoding="UTF-8" standalone="no"?>
<svg
   width="466.4"
   height="158"
   version="1.1"
   id="svg2"
   sodipodi:docname="logo.svg"
   inkscape:version="1.3.2 (091e20e, 2023-11-25, custom)"
   inkscape:export-filename="logo.svg"
   inkscape:export-xdpi="96"
   inkscape:export-ydpi="96"
   xmlns:inkscape="http://www.inkscape.org/namespaces/inkscape"
   xmlns:sodipodi="http://sodipodi.sourceforge.net/DTD/sodipodi-0.dtd"
   xmlns="http://www.w3.org/2000/svg"
   xmlns:svg="http://www.w3.org/2000/svg">
  <defs
     id="defs2" />
  <sodipodi:namedview
     id="namedview2"
     pagecolor="#505050"
     bordercolor="#ffffff"
     borderopacity="1"
     inkscape:showpageshadow="0"
     inkscape:pageopacity="0"
     inkscape:pagecheckerboard="1"
     inkscape:deskcolor="#505050"
     inkscape:zoom="3.1057033"
     inkscape:cx="234.89044"
     inkscape:cy="20.446254"
     inkscape:window-width="3840"
     inkscape:window-height="2054"
     inkscape:window-x="-11"
     inkscape:window-y="-11"
     inkscape:window-maximized="1"
     inkscape:current-layer="g2" />
  <g
     style="display:inline"
     id="g2">
    <path
       d="M 32.8,155.19899 H 2.9999998 V 49.998994 H 32.8 Z M 35.6,19.598994 q 0,8.2 -5.4,13 -5.2,4.6 -12.4,4.6 -7.2,0 -12.6000002,-4.6 -5.2,-4.8 -5.2,-13 0,-8.2 5.2,-12.7999999 5.4000002,-4.8 12.6000002,-4.8 7.2,0 12.4,4.8 5.4,4.5999999 5.4,12.7999999 z"
       id="path9"
       style="font-weight:700;font-size:200px;font-family:Ubuntu;-inkscape-font-specification:'Ubuntu Bold';fill:#9333ea;stroke-width:0;stroke-linecap:round;stroke-linejoin:round" />
    <path
       style="font-weight:700;font-size:200px;font-family:Ubuntu;-inkscape-font-specification:'Ubuntu Bold';fill:#ffffff;stroke-width:0;stroke-linecap:round;stroke-linejoin:round"
       d="m 104.39991,14.998994 q 31,0 47.6,11 16.6,10.8 16.6,35.6 0,25 -16.8,36.2 -16.8,10.999996 -48,10.999996 h -9.799999 v 46.4 h -31.2 V 18.598994 q 10.2,-2 21.6,-2.8 11.4,-0.8 19.999999,-0.8 z m 2,26.6 q -3.4,0 -6.799999,0.2 -3.2,0.2 -5.6,0.4 v 40 h 9.799999 q 16.2,0 24.4,-4.4 8.2,-4.4 8.2,-16.4 0,-5.8 -2.2,-9.6 -2,-3.8 -6,-6 -3.8,-2.4 -9.4,-3.2 -5.6,-1 -12.4,-1 z M 231.59973,157.19899 q -13,-0.2 -21.2,-2.8 -8,-2.6 -12.8,-7.2 -4.6,-4.8 -6.4,-11.4 -1.6,-6.8 -1.6,-15.2 V 4.7989941 l 29.8,-4.8 V 114.59899 q 0,4 0.6,7.2 0.6,3.2 2.2,5.4 1.8,2.2 5,3.6 3.2,1.4 8.6,1.8 z m 16.2,-53.8 q 0,-13.999996 4.2,-24.399996 4.4,-10.6 11.4,-17.6 7,-7 16,-10.6 9.2,-3.6 18.8,-3.6 22.4,0 35.4,13.8 13,13.6 13,40.199996 0,2.6 -0.2,5.8 -0.2,3 -0.4,5.4 h -67.6 q 1,9.2 8.6,14.6 7.6,5.4 20.4,5.4 8.2,0 16,-1.4 8,-1.6 13,-3.8 l 4,24.2 q -2.4,1.2 -6.4,2.4 -4,1.2 -9,2 -4.8,1 -10.4,1.6 -5.6,0.6 -11.2,0.6 -14.2,0 -24.8,-4.2 -10.4,-4.2 -17.4,-11.4 -6.8,-7.4 -10.2,-17.4 -3.2,-10 -3.2,-21.6 z m 70,-11.399996 q -0.2,-3.8 -1.4,-7.4 -1,-3.6 -3.4,-6.4 -2.2,-2.8 -5.8,-4.6 -3.4,-1.8 -8.6,-1.8 -5,0 -8.6,1.8 -3.6,1.6 -6,4.4 -2.4,2.8 -3.8,6.6 -1.2,3.6 -1.8,7.4 z m 93.59994,-10 20.8,-32 h 30.8 l -36,50.599996 q 12,15 21.8,29.2 9.8,14.2 15.6,25.4 h -32 q -1.6,-3 -4,-7.4 -2.4,-4.6 -5.4,-9.4 -3,-5 -6.4,-9.8 -3.2,-5 -6.4,-9 -3,3.8 -6.2,8.4 -3,4.6 -5.8,9.4 -2.8,4.6 -5.6,9.2 -2.6,4.6 -4.6,8.6 h -30.4 q 2.4,-5 6.6,-11.8 4.2,-6.8 9,-14 5,-7.4 10.4,-14.6 5.4,-7.4 10.6,-13.8 -9,-12.599996 -18,-25.399996 -9,-13 -17.8,-25.6 h 32.2 z"
       id="path10" />
  </g>
</svg>
